<?xml version="1.0" standalone="no"?>
<!DOCTYPE svg PUBLIC "-//W3C//DTD SVG 20010904//EN"
 "http://www.w3.org/TR/2001/REC-SVG-20010904/DTD/svg10.dtd">
<svg version="1.0" xmlns="http://www.w3.org/2000/svg"
 width="512.000000pt" height="512.000000pt" viewBox="0 0 512.000000 512.000000"
 preserveAspectRatio="xMidYMid meet">
<metadata>
Created by potrace 1.14, written by Peter Selinger 2001-2017
</metadata>
<g transform="translate(0.000000,512.000000) scale(0.100000,-0.100000)"
fill="#000000" stroke="none">
<path d="M1590 5093 c-30 -27 -34 -36 -36 -89 -1 -32 -3 -66 -3 -75 -1 -10
-31 -30 -80 -52 -333 -155 -685 -431 -901 -707 -19 -25 -37 -47 -40 -50 -7 -7
-45 -61 -105 -150 -222 -327 -370 -741 -413 -1150 -14 -140 -7 -504 12 -615 3
-16 8 -43 10 -60 22 -158 102 -434 171 -590 39 -89 131 -270 153 -302 10 -15
45 -68 78 -118 106 -161 198 -270 359 -426 384 -371 850 -599 1405 -686 105
-16 197 -18 1060 -18 l945 0 84 22 c208 56 370 149 517 297 97 98 146 166 204
285 73 149 110 303 107 452 -2 76 -5 89 -29 121 -43 57 -79 68 -213 68 l-117
0 20 33 c93 151 240 512 267 658 3 13 7 35 10 49 3 14 7 35 10 48 2 13 6 31 9
40 9 27 19 101 33 227 10 91 10 409 1 505 -9 85 -22 172 -37 245 -6 28 -13 61
-15 75 -31 156 -115 389 -206 572 -82 163 -132 244 -252 405 l-68 91 0 431 0
430 -24 28 c-22 26 -30 28 -103 30 -208 4 -446 -87 -627 -240 l-45 -39 -78 37
c-202 95 -430 168 -643 205 -36 6 -76 13 -90 15 -146 26 -667 26 -709 1 -3 -2
-28 -7 -56 -10 -27 -4 -73 -11 -101 -17 -34 -6 -59 -6 -78 0 -59 23 -166 43
-257 48 -95 6 -96 6 -129 -24z"/>
</g>
</svg>
